<svg id="Layer_1" data-name="Layer 1" xmlns="http://www.w3.org/2000/svg" xmlns:xlink="http://www.w3.org/1999/xlink" viewBox="0 0 2084.01 1247.29">
    <defs>
        <style>.cls-1{fill:url(#linear-gradient);}.cls-2{fill:url(#linear-gradient-2);}.cls-3{fill:url(#linear-gradient-3);}.cls-4{fill:url(#linear-gradient-4);}.cls-5{fill:url(#linear-gradient-5);}.cls-6{fill:url(#linear-gradient-6);}.cls-7{fill:url(#linear-gradient-7);}.cls-8{fill:url(#linear-gradient-8);}.cls-9{fill:url(#linear-gradient-9);}.cls-10{fill:url(#linear-gradient-10);}</style>
            <linearGradient id="linear-gradient" x1="-255.37" y1="593.95" x2="-22.73" y2="593.95" gradientTransform="translate(202.19 -116.67)" gradientUnits="userSpaceOnUse"><stop offset="0" stop-color="#ff0"/><stop offset="1" stop-color="red"/>
            </linearGradient>
            <linearGradient id="linear-gradient-2" x1="1536.32" y1="250.99" x2="1993.81" y2="250.99" gradientTransform="translate(346.52 -818.78) rotate(29.11)" gradientUnits="userSpaceOnUse"><stop offset="0.12" stop-color="#3cf1ff"/><stop offset="1" stop-color="#ea00e6"/>
            </linearGradient>
            <linearGradient id="linear-gradient-3" x1="1540.13" y1="260.41" x2="1977.61" y2="260.41" gradientTransform="translate(429.54 -721.82) rotate(29.11)" xlink:href="#linear-gradient-2"/>
            <linearGradient id="linear-gradient-4" x1="1012.55" y1="210.59" x2="1186.16" y2="210.59" gradientUnits="userSpaceOnUse"><stop offset="0" stop-color="#45af00"/><stop offset="1" stop-color="#48ff37"/>
            </linearGradient>
            <linearGradient id="linear-gradient-5" x1="3027.4" y1="-161.71" x2="3295.46" y2="-161.71" gradientTransform="translate(-3120.57 228.55)" gradientUnits="userSpaceOnUse"><stop offset="0.12" stop-color="#00ce28"/><stop offset="1" stop-color="#edff4e"/>
            </linearGradient>
            <linearGradient id="linear-gradient-6" x1="97.29" y1="1030.19" x2="356.32" y2="1030.19" gradientUnits="userSpaceOnUse"><stop offset="0" stop-color="#0600f1"/><stop offset="1" stop-color="#e60088"/> 
            </linearGradient>
            <linearGradient id="linear-gradient-7" x1="375.96" y1="131.65" x2="579.9" y2="78.94" gradientUnits="userSpaceOnUse"><stop offset="0" stop-color="#ffa88f"/><stop offset="1" stop-color="#ea00e6"/>
            </linearGradient>
            <linearGradient id="linear-gradient-8" x1="226.35" y1="1080.23" x2="584.45" y2="987.7" gradientTransform="translate(243.21 -56.94)" xlink:href="#linear-gradient-7"/>
            <linearGradient id="linear-gradient-9" x1="1663.17" y1="943.61" x2="1999.28" y2="943.61" gradientTransform="translate(-117.87 723.02) rotate(-18.1)" gradientUnits="userSpaceOnUse"><stop offset="0.12" stop-color="#3006ff"/><stop offset="1" stop-color="#70ffbc"/>
            </linearGradient>
            <linearGradient id="linear-gradient-10" x1="1106.28" y1="1048.47" x2="1511.83" y2="1048.47" gradientUnits="userSpaceOnUse"><stop offset="0.12" stop-color="#ff3450"/><stop offset="1" stop-color="#edff4e"/>
            </linearGradient>
    </defs>
        <rect class="cls-1" x="-53.19" y="360.96" width="232.64" height="232.64" rx="12" transform="translate(253.53 104.93) rotate(20.42)"/>
        <path class="cls-2" d="M1837.69,486.85a9.55,9.55,0,0,1-2.06-.22l-224.08-47.21a10,10,0,0,1-7.45-6.68L1533,215.08a10,10,0,0,1,2.06-9.79L1687.94,34.84a10,10,0,0,1,7.44-3.32,10.21,10.21,0,0,1,2.06.21l224.08,47.21a10,10,0,0,1,7.45,6.68l71.15,217.67a10,10,0,0,1-2.06,9.78L1845.13,483.52A10,10,0,0,1,1837.69,486.85Z" transform="translate(83.03 96.96)"/>
        <polygon class="cls-3" points="1910.71 579.02 1686.63 531.81 1615.48 314.15 1768.41 143.7 1992.49 190.91 2063.64 408.57 1910.71 579.02"/>
        <circle class="cls-4" cx="1099.35" cy="210.59" r="86.81"/>
        <rect class="cls-5" x="-93.16" y="20.74" width="268.06" height="92.22" rx="12" transform="translate(92.04 235.39) rotate(-124.57)"/>
        <circle class="cls-6" cx="226.8" cy="1030.19" r="129.51">
        </circle> 
        <circle class="cls-7" cx="477.93" cy="105.3" r="105.3"/>
        <rect class="cls-8" x="475.26" y="898.23" width="346.7" height="157.58" rx="12" transform="translate(-417.86 841.76) rotate(-45)"/>
        <circle class="cls-9" cx="1915.91" cy="1050.95" r="168.06"/>
        <rect class="cls-10" x="1106.28" y="997.78" width="405.56" height="101.39" rx="12" transform="translate(327.31 -150.4) rotate(11.9)"/>
</svg>